PathFileType	4	(X/Y/Z)	C:/Users/beibeiliu/ov580/test_trc\sequence.12_training_dense_right.trc
DataRate	CameraRate	NumFrames	NumMarkers	Units	OrigDataRate	OrigDataStartFrame	OrigNumFrames
120	120	14	19	mm	120	60	89
Frame#	Time	ThumbCMC			ThumbMCP			ThumbIP			ThumbTip			IndexMCP			IndexPIP			IndexTip			MiddleMCP			MiddlePIP			MiddleTip			RingMCP			RingPIP			RingTip			PinkyMCP			PinkyPIP			PinkyTip			BackHand1			BackHand2			BackHand3	
		X0	Y0	Z0	X1	Y1	Z1	X2	Y2	Z2	X3	Y3	Z3	X4	Y4	Z4	X5	Y5	Z5	X6	Y6	Z6	X7	Y7	Z7	X8	Y8	Z8	X9	Y9	Z9	X10	Y10	Z10	X11	Y11	Z11	X12	Y12	Z12	X13	Y13	Z13	X14	Y14	Z14	X15	Y15	Z15	X16	Y16	Z16	X17	Y17	Z17	X18	Y18	Z18	
59	0.491667	82.173	65.0781	14.9987	79.9374	92.9063	-1.47077	61.5882	105.554	-11.9061	46.9819	119.121	-16.9983	41.7221	75.6934	-32.4119	31.4279	101.53	-31.534	38.9354	111.598	-4.04213	16.7168	65.2039	-25.3557	1.59728	78.8271	-39.8396	-11.3287	94.6506	-50.472	5.62174	61.6847	-5.75573	-10.2348	75.1092	-16.9404	-21.1653	89.4859	-25.5977	-0.154288	61.5596	21.2331	-13.055	73.9299	16.5333	-25.2796	84.523	7.91233	36.2593	40.009	19.5368	55.4352	29.2914	41.1029	64.9864	36.6129	14.5814	
60	0.5	79.6606	60.898	17.9381	75.0092	80.5374	-3.90307	69.3651	93.0131	-23.3576	54.747	107.113	-37.9407	41.6517	60.6017	-39.7988	41.3918	89.3271	-45.0659	48.8431	103.113	-19.8271	22.4925	51.385	-31.6309	13.5952	61.2065	-54.3311	-2.73774	77.8885	-75.0714	2.80449	56.9979	-18.8543	-5.94746	66.9638	-34.7077	-14.3388	79.2947	-51.6342	-6.09246	65.8278	7.70382	-14.6576	76.0348	-10.0076	-27.4059	83.6651	-16.17	25.5255	40.4931	21.616	38.8108	35.9167	45.0949	53.7009	34.2174	17.7022	
61	0.508333	78.7844	55.5264	18.1162	84.1896	71.5764	-6.22243	78.1551	76.8834	-30.2491	63.0013	82.6574	-45.1207	54.4227	38.1338	-34.787	48.6486	64.513	-50.7822	56.5743	83.5237	-32.6084	28.1863	32.8562	-29.2246	25.3433	33.3831	-58.1778	17.9389	40.9912	-81.1999	14.8817	38.1136	-21.2711	6.79347	39.5575	-40.2614	-0.96598	45.2959	-60.7399	-0.639704	51.5744	-5.81171	-8.91449	56.8125	-17.486	-20.343	58.1319	-38.5068	27.0189	37.8661	22.0436	36.6263	39.4545	47.4949	58.8957	30.8557	25.2601	
62	0.516667	90.6897	50.4703	21.0374	93.3765	58.1367	-7.68205	88.8577	55.2165	-34.2622	78.3544	56.6512	-51.8663	68.9796	16.5881	-27.4505	64.4333	32.7903	-49.6935	67.7687	62.3936	-38.3501	46.1277	4.23435	-26.0718	45.5257	-0.00787455	-48.5111	36.196	-0.35572	-76.0531	28.6466	13.5386	-12.844	25.7824	3.14624	-37.6098	18.2268	0.493355	-59.8167	11.8091	28.6984	-2.06944	5.76197	23.008	-21.4625	-0.917149	17.0118	-39.8595	41.4178	28.4235	28.0854	45.1108	38.2408	52.4508	68.6353	26.9277	31.0453	
63	0.525	101.914	48.8206	19.1514	105.342	50.3185	-9.63597	103.755	44.1832	-33.0219	92.1632	38.8327	-54.5076	87.2821	3.48324	-22.0971	86.4303	17.7608	-49.241	75.6899	44.8587	-41.3411	67.152	-9.61303	-16.0094	66.7343	-19.8022	-36.5403	58.6899	-29.3126	-65.9647	48.0864	-3.83716	-5.5147	44.5288	-18.3671	-25.4109	41.6592	-26.6706	-44.9885	30.1323	8.72055	1.69085	28.4002	-1.1702	-13.1135	20.0544	-13.803	-28.1323	56.2291	16.8289	29.6857	59.0587	36.1394	52.2083	85.7837	25.0828	33.8138	
64	0.533333	109.359	56.9687	22.5817	118.314	52.1155	-11.5235	117.146	46.4166	-31.462	108.067	33.6418	-51.3467	113.505	3.33685	-16.981	105.415	13.3812	-47.0621	90.6654	37.4411	-44.912	95.7666	-13.8503	-11.1676	92.2945	-27.9281	-31.5969	92.908	-38.2671	-56.0955	73.1149	-12.4613	-1.87582	71.5736	-32.3041	-21.6144	73.8806	-39.5464	-36.8064	53.8465	-4.06761	3.80649	50.5988	-18.0276	-9.82412	45.642	-31.5457	-20.8428	72.1684	13.678	30.469	70.9214	33.4669	51.6021	97.9508	29.2895	37.0847	
65	0.541667	115.749	66.5093	20.1089	121.026	63.8016	-9.39701	126.123	56.8379	-30.7141	121.906	45.3681	-49.5202	134.339	15.7609	-15.6953	123.105	18.685	-44.6485	106.617	38.731	-48.0164	120.891	-9.86449	-10.6974	125.588	-19.7522	-29.4971	129.697	-28.5239	-53.2001	104.566	-10.929	-3.28102	109.72	-25.8197	-19.8721	114.271	-36.7565	-38.9862	81.1878	-9.35097	2.6062	80.7659	-24.7843	-10.9456	84.4465	-36.1847	-20.7847	90.6832	17.3822	31.7041	84.1139	36.3793	49.792	111.803	33.7418	37.3194	
66	0.55	115.059	78.3528	18.4615	118.601	79.4741	-10.3188	128.334	74.2979	-34.5765	126.841	61.4964	-51.8072	149.49	37.0557	-21.1074	143.401	41.1643	-46.5098	113.698	55.0618	-48.8578	146.474	13.3695	-10.9777	157.121	2.83771	-32.4244	162.816	-6.56951	-59.0113	132.902	-0.419542	-6.25586	143.638	-11.9748	-24.252	151.049	-17.0179	-40.2878	109.589	-4.47681	1.21152	115.328	-14.8424	-9.50414	121.673	-32.0554	-22.2766	110.787	19.1244	27.69	96.4935	34.4019	45.6419	120.553	48.1674	35.801	
67	0.558333	108.479	87.8781	17.762	110.02	90.7455	-12.3204	117.954	86.6219	-35.484	119.288	80.966	-55.6242	153.963	62.8531	-24.817	142.294	65.9878	-50.193	112.892	65.3197	-48.6434	163.474	41.4488	-19.6804	173.289	33.8961	-37.7896	181.782	28.5111	-61.5192	148.745	21.757	-8.22726	164.669	16.3075	-26.0515	174.967	11.7246	-45.2322	130.749	6.97597	-3.21416	146.257	-0.50691	-17.3922	154.337	-11.2312	-25.5368	124.128	32.7779	24.8324	107.022	36.4111	45.5044	128.512	61.9051	31.6552	
68	0.566667	96.5554	90.4973	16.5858	93.1652	94.805	-11.1169	95.7658	100.196	-37.7908	100.071	92.9253	-58.7442	142.982	85.7695	-28.2267	131.155	82.8712	-54.0839	101.751	78.1963	-48.917	162.334	65.1261	-27.3357	170.699	65.6281	-46.4766	180.768	65.5629	-70.7967	156.395	43.4217	-17.2682	170.314	46.3995	-35.1845	183.835	46.9533	-55.579	144.601	26.2914	-11.9299	154.962	24.6637	-23.3325	172.971	17.9008	-36.4234	130.854	47.3562	19.1483	117.828	43.5242	38.0722	126.458	69.1956	27.2846	
69	0.575	87.6308	87.6002	13.273	75.8079	92.5322	-11.7	75.5376	96.9635	-39.1052	75.2838	92.0118	-57.1455	119.945	103.755	-38.2253	104.636	95.2555	-58.2118	82.5442	79.183	-48.7575	144.784	89.0521	-34.7532	151.275	94.5041	-56.3063	160.147	93.1931	-81.772	148.238	65.3445	-26.0588	158.691	72.2342	-45.2617	171.479	71.8592	-65.8861	145.87	46.9719	-22.0335	155.188	41.5979	-32.2906	169.241	42.1	-44.7358	132.483	58.1374	9.97995	117.84	54.8399	35.3848	114.762	80.9052	24.6127	
70	0.583333	74.3826	83.7819	14.7836	59.62	85.097	-12.9077	51.5798	88.6982	-36.7135	53.7801	82.9214	-58.4283	95.7761	105.329	-45.3423	78.0943	92.8611	-60.3161	63.4151	70.6569	-42.2593	123.931	98.8521	-43.255	122.189	108.452	-63.6579	127.586	109.122	-89.3238	131.952	82.6606	-35.9864	139.742	90.367	-54.9528	146.198	97.205	-74.6802	138.937	62.7147	-30.3778	149.417	62.5153	-44.9524	158.473	67.8966	-53.4767	125.388	70.0717	0.964138	119.023	64.1	25.2492	108.435	88.8172	18.0782	
71	0.591667	65.0101	80.0165	13.5252	44.6145	74.6006	-8.4406	42.0329	71.5891	-34.5289	40.0913	64.9136	-57.7017	72.1105	102.054	-46.0436	61.5534	79.1987	-60.4541	54.0596	59.9421	-42.8792	97.1503	106.312	-51.7485	94.9581	110.414	-71.1717	92.3117	112.888	-100.25	116.277	92.1719	-44.1479	121.68	96.7381	-63.3744	123.241	107.787	-85.1617	128.509	71.8505	-34.2178	134.8	78.1272	-48.5625	144.622	82.9523	-60.3045	117.791	81.1896	-0.700959	114.367	73.5668	25.7467	94.1749	91.1047	15.8978	
72	0.6	60.1765	74.7212	17.4904	41.2747	62.1511	-8.08591	36.447	55.2931	-30.3117	36.8587	45.4928	-50.5521	59.9188	90.9081	-46.4511	51.7904	62.5655	-58.8472	55.6147	44.9608	-36.5818	80.6756	98.7496	-55.6173	77.5599	98.7595	-79.0069	70.9627	97.7099	-101.341	101.891	92.6151	-46.7353	101.109	98.6993	-70.5552	105.9	102.75	-90.484	118.323	79.4586	-36.6248	125.632	85.318	-56.2683	137.527	93.2038	-66.4812	107.836	88.9782	-4.98023	110.821	85.7816	16.9549	81.6966	96.6733	8.38145	
